<svg xmlns="http://www.w3.org/2000/svg" xmlns:xlink="http://www.w3.org/1999/xlink" viewBox="0,0,256,256" width="16px" height="16px" fill-rule="nonzero"><g fill="#000000" fill-rule="nonzero" stroke="none" stroke-width="1" stroke-linecap="butt" stroke-linejoin="miter" stroke-miterlimit="10" stroke-dasharray="" stroke-dashoffset="0" font-family="none" font-weight="none" font-size="none" text-anchor="none" style="mix-blend-mode: normal"><g transform="scale(5.12,5.12)"><path d="M25,0.03711c-0.19738,0 -0.39525,0.09747 -0.46875,0.29297l-7.9668,21.24805c-0.234,0.534 -0.45116,1.05845 -0.66016,1.56445c-1.622,3.919 -2.68883,6.51184 -8.29883,5.33984c-0.179,-0.037 -0.36538,0.02602 -0.48437,0.16602c-0.118,0.14 -0.14998,0.33291 -0.08398,0.50391c0.564,1.448 1.73658,4.46017 0.26758,8.20117c-0.074,0.188 -0.02681,0.40102 0.11719,0.54102c0.146,0.142 0.35792,0.18056 0.54492,0.10156c0.223,-0.095 0.52361,-0.14648 0.84961,-0.14648c0.911,0 1.82512,0.36559 2.32812,0.93359c1.174,1.322 5.48138,4.93109 11.23438,5.74609c0.023,0.003 0.04536,0.00391 0.06836,0.00391c0.116,0 0.23031,-0.03828 0.32031,-0.11328c0.109,-0.091 0.17269,-0.22328 0.17969,-0.36328c0.013,-0.313 0.02158,-0.61972 0.01758,-0.76172c-0.006,-0.197 -0.1295,-0.37422 -0.3125,-0.44922c-3.633,-1.488 -6.5382,-6.07958 -4.9082,-10.26758c0.748,-1.716 4.89948,-12.68794 6.89648,-17.96094l0.35938,-0.95508l0.35938,0.95313c1.996,5.272 6.14767,16.24636 6.88867,17.94336c1.643,4.219 -1.22422,8.80139 -4.82422,10.27539c-0.188,0.077 -0.3125,0.33606 -0.3125,0.53906c0.001,0.326 0.00158,0.41273 0.01758,0.67773c0.008,0.14 0.07364,0.26942 0.18164,0.35742c0.109,0.088 0.24967,0.12837 0.38867,0.10938c5.689,-0.806 9.9832,-4.41628 11.1582,-5.73828c0.503,-0.567 1.41712,-0.93359 2.32813,-0.93359c0.325,0 0.62661,0.05248 0.84961,0.14648c0.186,0.079 0.39892,0.04044 0.54492,-0.10156c0.145,-0.14 0.18923,-0.35402 0.11523,-0.54102c-1.47,-3.74 -0.29642,-6.75222 0.26758,-8.19922c0.066,-0.171 0.03402,-0.36391 -0.08398,-0.50391c-0.119,-0.14 -0.30738,-0.20402 -0.48437,-0.16602c-5.607,1.171 -6.67683,-1.42184 -8.29883,-5.33984c-0.209,-0.507 -0.42639,-1.03006 -0.65039,-1.53906l-7.97656,-21.27148c-0.073,-0.1955 -0.27137,-0.29297 -0.46875,-0.29297zM7.4668,41.51563c-0.366,0.139 -0.51989,0.21992 -0.83789,0.29492c0,0 6.73427,8.23826 18.44727,8.19727c11.934,-0.044 18.29492,-8.11133 18.29492,-8.11133c-0.214,-0.128 -0.36595,-0.2037 -0.62695,-0.3457c-6.429,4.988 -15.24903,8.47384 -17.70703,4.08984c-1.339,3.618 -9.74331,1.768 -17.57031,-4.125z"></path></g></g><g fill="#000000" fill-rule="nonzero" stroke="none" stroke-width="1" stroke-linecap="butt" stroke-linejoin="miter" stroke-miterlimit="10" stroke-dasharray="" stroke-dashoffset="0" font-family="none" font-weight="none" font-size="none" text-anchor="none" style="mix-blend-mode: normal"><g><path d="M107.68,178.54v1.17h-9.31v-1.17c0.35333,-0.18 0.76,-0.35333 1.22,-0.52c0.46,-0.16667 0.89333,-0.29 1.3,-0.37v0v-17.39c-0.48667,-0.08 -0.95667,-0.2 -1.41,-0.36c-0.45333,-0.16667 -0.82333,-0.34333 -1.11,-0.53v0v-1.16h9.31v1.16c-0.30667,0.20667 -0.65,0.39333 -1.03,0.56c-0.37333,0.16 -0.75667,0.27 -1.15,0.33v0v7.44h8.14v-7.44c-0.44667,-0.08 -0.85,-0.2 -1.21,-0.36c-0.36,-0.16667 -0.68333,-0.34333 -0.97,-0.53v0v-1.16h9.31v1.16c-0.34667,0.22667 -0.74667,0.41333 -1.2,0.56c-0.44667,0.14 -0.88667,0.25 -1.32,0.33v0v17.39c0.47333,0.08 0.93,0.20333 1.37,0.37c0.44,0.16667 0.82333,0.34 1.15,0.52v0v1.17h-9.31v-1.17c0.30667,-0.18 0.64333,-0.35333 1.01,-0.52c0.37333,-0.16667 0.76333,-0.29 1.17,-0.37v0v-7.95h-8.14v7.95c0.41333,0.08 0.79333,0.19333 1.14,0.34c0.34667,0.14 0.69333,0.32333 1.04,0.55zM157.6,178.54v1.17h-9.18v-1.17c0.40667,-0.2 0.80667,-0.37333 1.2,-0.52c0.38667,-0.14 0.80333,-0.26333 1.25,-0.37v0v-12.84l0.16,-3.59h-0.25l-1.01,3.28l-5.93,15.21h-1.41l-5.9,-15.08l-1.11,-3.6h-0.27l0.03,3.9v12.6c0.38667,0.08 0.81667,0.21333 1.29,0.4c0.46667,0.18 0.90667,0.38333 1.32,0.61v0v1.17h-7.5v-1.17c0.32667,-0.16 0.73333,-0.35333 1.22,-0.58c0.48,-0.22667 0.93333,-0.38 1.36,-0.46v0v-17.24c-0.40667,-0.08 -0.84,-0.19 -1.3,-0.33c-0.46,-0.14667 -0.86667,-0.33333 -1.22,-0.56v0v-1.16h8.33l4.7,12.5l0.89,2.95h0.03l0.92,-3.01l4.79,-12.44h7.62v1.16c-0.34667,0.20667 -0.72,0.38667 -1.12,0.54c-0.4,0.15333 -0.80333,0.27 -1.21,0.35v0v17.42c0.42667,0.08667 0.84,0.21 1.24,0.37c0.4,0.16667 0.75333,0.33 1.06,0.49z"></path></g></g></svg>